<?xml version="1.0" standalone="no"?>
<!DOCTYPE svg PUBLIC "-//W3C//DTD SVG 20010904//EN"
 "http://www.w3.org/TR/2001/REC-SVG-20010904/DTD/svg10.dtd">
<svg version="1.0" xmlns="http://www.w3.org/2000/svg"
 width="992.000000pt" height="992.000000pt" viewBox="0 0 992.000000 992.000000"
 preserveAspectRatio="xMidYMid meet">
<metadata>
Created by potrace 1.14, written by Peter Selinger 2001-2017
</metadata>
<g transform="translate(0.000000,992.000000) scale(0.100000,-0.100000)"
fill="#000000" stroke="none">
<path d="M5197 9116 c-4 -9 -10 -15 -14 -14 -4 1 -20 -2 -34 -6 -14 -4 -32 -8
-40 -10 -8 -2 -49 -19 -92 -39 -42 -21 -82 -37 -87 -37 -6 0 -10 -4 -10 -10 0
-5 -3 -9 -7 -8 -5 1 -25 -6 -47 -15 -21 -9 -42 -17 -47 -17 -5 0 -9 -4 -9 -10
0 -5 -8 -10 -19 -10 -21 0 -113 -47 -123 -64 -6 -8 -8 -8 -8 1 0 7 -7 10 -15
7 -8 -4 -12 -11 -8 -17 4 -6 -2 -8 -15 -5 -15 4 -22 2 -22 -8 0 -7 -6 -11 -14
-8 -7 3 -20 -1 -27 -9 -8 -7 -17 -14 -22 -15 -4 -1 -24 -9 -45 -18 -20 -10
-39 -18 -42 -18 -3 -1 -11 -5 -17 -9 -7 -5 -13 -5 -13 -2 0 4 -7 -1 -16 -9 -8
-9 -20 -14 -25 -11 -5 4 -9 1 -9 -4 0 -6 -6 -11 -12 -11 -7 0 -25 -6 -40 -14
-14 -8 -42 -19 -62 -26 -20 -6 -36 -16 -36 -21 0 -5 -8 -9 -17 -9 -10 0 -27
-7 -37 -15 -10 -8 -23 -12 -27 -9 -5 3 -9 0 -9 -6 0 -6 -4 -8 -10 -5 -5 3 -10
2 -10 -4 0 -5 -13 -12 -30 -16 -16 -4 -30 -11 -30 -16 0 -5 -3 -8 -7 -7 -13 4
-73 -24 -73 -34 0 -5 -4 -6 -10 -3 -5 3 -30 -5 -55 -19 -25 -14 -45 -24 -45
-21 0 3 -20 -6 -44 -20 -24 -13 -46 -21 -50 -18 -3 4 -6 1 -6 -5 0 -7 -8 -12
-17 -12 -10 0 -27 -7 -37 -15 -10 -8 -23 -12 -28 -9 -4 3 -11 -1 -14 -10 -3
-8 -12 -12 -20 -9 -8 3 -14 0 -14 -6 0 -6 -6 -11 -13 -11 -7 0 -33 -10 -58
-22 -48 -24 -45 -23 -76 -33 -13 -4 -23 -12 -23 -18 0 -6 -3 -8 -6 -4 -3 3
-23 -3 -42 -14 -20 -10 -42 -19 -49 -19 -7 0 -13 -5 -13 -11 0 -6 -7 -9 -15
-5 -8 3 -19 -2 -24 -12 -6 -9 -11 -14 -11 -9 0 4 -13 1 -30 -8 -16 -9 -30 -13
-30 -10 0 4 -7 -1 -16 -9 -8 -9 -22 -16 -30 -16 -8 0 -12 -4 -9 -10 3 -6 -1
-7 -9 -4 -9 3 -16 2 -16 -4 0 -6 -8 -9 -17 -8 -10 2 -20 0 -23 -3 -10 -14
-169 -86 -182 -83 -5 1 -8 -2 -8 -8 0 -6 -3 -9 -7 -8 -5 1 -47 -17 -96 -40
-48 -23 -94 -42 -102 -42 -8 0 -15 -4 -15 -9 0 -5 -10 -13 -22 -16 -13 -4 -57
-23 -98 -43 -41 -20 -77 -37 -80 -37 -15 -5 -103 -44 -255 -116 -38 -18 -76
-34 -84 -35 -8 -2 -18 -9 -22 -16 -5 -7 -9 -9 -9 -5 0 5 -17 -1 -38 -11 -39
-21 -70 -33 -75 -29 -2 1 -11 -6 -21 -15 -10 -10 -24 -18 -32 -18 -8 0 -14 -5
-14 -11 0 -5 -4 -8 -9 -5 -4 3 -38 -10 -75 -29 -36 -18 -66 -31 -66 -28 0 3
-6 0 -13 -6 -8 -6 -17 -8 -20 -4 -4 3 -7 1 -7 -6 0 -7 -4 -9 -10 -6 -5 3 -10
2 -10 -2 0 -5 -19 -17 -42 -27 -24 -9 -51 -21 -60 -27 -10 -5 -25 -9 -33 -9
-8 0 -15 -4 -15 -9 0 -9 -68 -37 -82 -33 -3 1 -12 -5 -18 -13 -7 -8 -19 -15
-26 -15 -8 0 -14 -4 -14 -10 0 -5 -3 -9 -7 -9 -5 1 -11 0 -15 -1 -5 -1 -11 -3
-15 -5 -5 -1 -26 -10 -48 -20 -22 -10 -43 -18 -47 -17 -5 1 -8 -3 -8 -8 0 -5
-3 -9 -8 -8 -4 1 -21 -6 -39 -15 -18 -9 -39 -17 -48 -17 -8 0 -15 -4 -15 -10
0 -5 -9 -10 -19 -10 -11 0 -27 -7 -36 -16 -9 -9 -18 -14 -22 -11 -3 3 -23 -5
-44 -19 -21 -13 -45 -24 -54 -24 -8 0 -15 -4 -15 -10 0 -5 -3 -9 -8 -8 -14 3
-62 -14 -62 -23 0 -5 -8 -9 -18 -9 -10 0 -29 -8 -42 -17 -14 -10 -27 -17 -30
-17 -24 2 -150 -105 -150 -127 0 -15 -2 -23 -11 -46 -4 -12 -5 -24 -1 -27 5
-3 7 -30 7 -61 -1 -31 2 -58 7 -61 4 -3 6 -9 3 -13 -5 -9 20 -136 35 -175 5
-14 8 -26 5 -26 -2 0 3 -17 12 -37 8 -21 17 -49 20 -63 2 -13 7 -27 11 -30 4
-3 8 -12 10 -20 2 -8 7 -16 12 -18 4 -2 6 -11 3 -21 -2 -9 3 -23 11 -30 9 -8
16 -22 16 -32 0 -11 6 -19 13 -19 13 -1 -17 -20 -36 -25 -14 -2 -38 -12 -87
-33 -19 -9 -39 -16 -45 -17 -5 0 -20 -6 -32 -13 -13 -7 -23 -10 -23 -6 0 4 -9
-1 -20 -11 -11 -10 -20 -15 -20 -11 0 3 -13 0 -30 -9 -16 -9 -30 -12 -30 -9 0
4 -8 0 -17 -9 -10 -8 -21 -16 -25 -16 -5 -1 -9 -1 -10 -2 -2 0 -10 -2 -18 -4
-37 -8 -45 -10 -51 -18 -3 -4 -14 -9 -25 -11 -28 -6 -132 -55 -156 -74 -48
-38 -98 -97 -94 -108 3 -7 1 -14 -4 -16 -5 -2 -10 -28 -11 -58 -1 -30 -6 -65
-11 -78 -5 -15 -4 -21 2 -17 7 4 7 -3 0 -19 -7 -18 -6 -26 1 -26 8 0 7 -5 -1
-15 -7 -8 -8 -15 -4 -15 5 0 10 -31 11 -70 0 -38 4 -78 8 -87 7 -17 16 -82 18
-130 1 -13 5 -23 10 -23 4 0 5 -4 2 -10 -3 -5 -3 -10 2 -10 4 0 9 -13 10 -30
5 -64 8 -80 15 -80 3 0 10 -14 13 -32 18 -80 176 -308 213 -308 5 0 15 -7 22
-15 7 -8 21 -15 31 -15 11 0 19 -5 19 -11 0 -5 5 -7 10 -4 6 3 10 1 10 -4 0
-6 9 -11 20 -11 11 0 20 -5 20 -10 0 -6 6 -10 12 -9 7 1 25 -3 39 -9 15 -6 35
-12 45 -14 11 -2 21 -5 24 -8 3 -4 50 -21 105 -39 55 -19 111 -38 125 -44 14
-6 31 -9 37 -8 7 1 13 -2 13 -7 0 -6 17 -13 38 -18 20 -4 39 -8 42 -10 3 -1
15 -5 26 -9 15 -5 20 -13 17 -26 -3 -10 -9 -16 -14 -14 -4 3 -16 -3 -26 -13
-10 -10 -36 -31 -58 -47 -22 -16 -43 -34 -47 -39 -5 -7 -8 -7 -8 -1 0 6 -5 2
-11 -7 -5 -10 -14 -18 -19 -18 -10 0 -44 -27 -82 -62 -10 -10 -18 -16 -18 -12
0 3 -17 -8 -37 -23 -146 -110 -159 -138 -161 -362 -2 -111 1 -158 10 -169 11
-13 11 -14 0 -8 -11 6 -11 4 -3 -10 5 -11 15 -46 21 -79 6 -33 12 -65 14 -72
1 -7 5 -16 9 -19 4 -4 7 -16 7 -26 0 -11 7 -32 15 -48 18 -35 11 -76 -13 -83
-10 -2 -27 -23 -39 -46 -12 -23 -17 -39 -10 -34 9 5 9 3 1 -8 -7 -8 -13 -34
-13 -59 -1 -25 -3 -67 -5 -93 -1 -27 1 -50 5 -53 4 -2 3 -20 -1 -39 -4 -19 -5
-35 -1 -35 3 0 6 -10 7 -22 1 -33 17 -123 39 -218 3 -14 8 -36 11 -50 12 -57
72 -164 129 -230 12 -14 21 -30 21 -36 -1 -18 -89 -124 -157 -191 -172 -167
-501 -393 -618 -425 -9 -3 1 -13 25 -25 21 -11 53 -29 70 -39 29 -16 36 -17
75 -4 24 8 50 14 56 13 7 0 11 3 8 7 -3 5 8 11 25 15 16 4 30 11 30 16 0 5 6
9 14 9 20 0 106 50 106 62 0 6 7 8 15 4 10 -3 15 1 15 12 0 15 2 15 10 2 9
-13 14 -7 11 13 0 4 2 6 6 6 27 -4 43 3 43 20 0 11 12 23 29 31 16 6 32 18 35
26 3 8 11 14 18 14 7 0 0 -12 -16 -26 -15 -14 -26 -27 -24 -29 2 -3 14 4 25
15 12 10 24 16 29 12 4 -4 3 -1 -1 7 -6 10 -4 13 7 9 8 -4 15 -1 15 7 0 7 -6
11 -14 8 -7 -3 -13 0 -13 6 0 6 3 11 8 11 8 0 73 50 151 117 25 21 49 37 54
35 4 -1 6 1 3 6 -5 8 114 132 127 132 3 0 16 -4 29 -9 13 -5 26 -8 29 -7 3 0
13 -5 22 -13 10 -7 17 -11 17 -8 0 3 30 -6 68 -20 37 -13 87 -31 112 -39 25
-8 52 -18 60 -21 8 -3 20 -7 25 -9 6 -1 136 -46 290 -99 154 -53 314 -107 355
-121 41 -13 82 -27 90 -30 8 -4 21 -8 28 -10 8 -1 21 -6 30 -10 9 -4 22 -8 27
-9 20 -5 271 -87 290 -95 11 -4 58 -20 105 -35 47 -15 92 -30 100 -33 8 -3 17
-6 20 -7 15 -3 177 -57 190 -62 8 -3 21 -8 28 -10 6 -1 18 -5 25 -6 6 -2 19
-7 27 -10 8 -3 78 -27 155 -52 77 -25 147 -48 155 -52 8 -3 22 -7 30 -7 8 -1
20 -4 25 -7 9 -6 407 -139 430 -144 5 -1 17 -5 25 -8 8 -3 67 -22 130 -42 63
-20 124 -41 135 -45 32 -14 448 -151 465 -154 9 -1 20 -4 25 -7 6 -4 165 -56
355 -118 190 -62 354 -116 365 -121 33 -14 174 -60 184 -60 6 0 22 -5 38 -11
15 -6 28 -9 28 -8 0 1 11 -4 25 -11 14 -8 35 -15 46 -16 12 -1 36 -10 53 -18
17 -9 33 -16 36 -16 3 0 6 0 8 -1 1 0 10 -2 20 -4 10 -2 26 -7 35 -11 9 -4 22
-8 27 -10 34 -8 233 -66 245 -71 8 -3 20 -7 25 -8 6 -2 35 -10 65 -20 108 -34
170 -42 235 -29 89 17 95 20 174 94 29 27 161 144 195 173 46 39 190 164 222
192 12 11 45 40 74 65 28 25 64 57 80 71 25 23 81 71 164 142 27 23 125 110
184 162 59 53 77 68 141 123 30 26 66 58 82 72 15 14 53 48 85 75 32 28 65 57
74 65 9 8 45 40 80 70 36 30 81 69 100 87 64 59 86 78 129 113 23 19 57 49 75
65 80 73 194 175 224 200 19 16 46 40 60 54 27 26 178 163 218 198 23 20 153
136 188 168 12 11 53 47 90 80 37 33 82 74 100 90 18 17 66 59 106 95 40 36
85 76 100 90 15 14 60 54 101 90 40 36 134 126 210 200 124 124 136 139 135
170 -1 27 -5 35 -18 34 -10 -1 -18 2 -18 7 0 18 -50 40 -155 67 -97 25 -111
32 -125 58 -21 37 -29 71 -36 159 -6 69 -6 70 26 98 32 29 33 37 8 41 -29 4
-35 17 -33 76 1 67 -3 61 110 155 33 28 65 55 71 60 6 6 32 28 58 50 166 138
184 159 157 192 -24 29 -74 61 -89 56 -7 -3 -19 0 -26 6 -7 6 -21 9 -30 5 -9
-3 -16 -1 -16 5 0 6 -13 11 -28 11 -15 0 -33 5 -40 12 -7 7 -12 9 -12 6 0 -4
-29 2 -64 12 -36 10 -67 16 -70 12 -3 -3 -6 -1 -6 4 0 5 -12 11 -27 12 -15 1
-30 5 -34 10 -9 9 8 52 21 52 5 0 10 9 10 20 0 11 4 20 8 20 5 0 15 15 24 33
15 31 14 34 -10 68 -24 33 -74 64 -96 60 -5 -1 -16 1 -25 5 -9 4 -34 9 -56 11
-47 4 -67 19 -39 29 10 4 23 14 27 21 5 7 12 11 16 8 5 -2 14 2 21 10 7 8 18
15 25 15 6 0 20 9 30 20 9 10 20 18 24 17 3 -1 26 12 51 29 25 17 50 33 56 35
5 2 80 48 165 102 84 54 163 103 173 110 11 7 25 15 30 20 6 4 27 18 46 30 19
12 40 33 47 47 10 20 8 28 -10 54 -20 29 -42 48 -59 52 -5 1 -10 3 -13 4 -6 3
-9 4 -60 14 -22 4 -46 12 -52 18 -7 6 -13 8 -13 5 0 -3 -20 1 -44 8 -24 8 -46
11 -49 9 -2 -2 -10 2 -17 11 -10 12 -10 15 1 15 10 0 11 2 2 8 -12 8 -22 40
-30 102 -2 19 -7 42 -10 50 -11 29 -10 225 1 232 7 5 7 8 1 8 -11 0 -12 141
-1 158 3 6 1 12 -5 14 -8 3 -6 9 4 20 9 8 14 18 11 21 -4 3 1 16 10 29 9 12
16 19 16 14 0 -4 15 1 33 12 17 10 103 61 190 113 124 74 157 98 153 111 -2
10 0 16 5 12 13 -8 11 8 -4 27 -16 21 -71 49 -96 49 -11 0 -23 5 -27 11 -3 6
-15 9 -25 6 -11 -3 -19 -2 -19 2 0 4 -12 8 -26 9 -15 1 -32 6 -38 11 -6 5 -19
7 -28 6 -10 -2 -20 1 -24 6 -3 5 -18 9 -35 9 -16 0 -29 4 -29 9 0 5 -13 7 -30
6 -16 -1 -30 1 -30 5 0 7 -47 21 -80 24 -8 1 -20 5 -26 9 -7 4 -28 8 -48 9
-20 2 -36 7 -36 11 0 5 -4 6 -9 3 -5 -3 -14 1 -21 9 -10 12 -16 13 -26 4 -11
-9 -14 -8 -14 0 0 8 -8 10 -20 6 -15 -5 -18 -3 -14 9 3 9 9 16 13 16 4 0 17 9
29 20 12 12 22 18 22 15 0 -4 17 7 38 23 20 16 47 32 60 36 12 4 22 11 22 16
0 4 20 21 45 37 25 15 45 33 46 38 0 6 2 18 4 28 3 16 -2 23 -39 54 -14 12
-69 25 -108 27 -10 0 -18 4 -18 8 0 4 -3 7 -7 7 -5 -1 -10 0 -13 1 -3 1 -16 3
-30 4 -49 4 -70 16 -70 42 0 13 -6 24 -12 24 -9 0 -8 4 2 10 8 5 10 10 4 10
-13 0 -13 2 -13 150 0 171 3 235 14 242 7 5 6 8 0 8 -6 0 -11 9 -11 20 0 11 4
20 8 20 4 0 7 3 6 8 -4 17 15 81 22 77 5 -3 15 1 23 9 8 8 17 12 21 9 3 -4 6
0 6 7 0 7 3 11 6 7 3 -3 11 -2 18 4 23 19 116 77 116 73 0 -3 10 4 22 16 12
11 28 20 35 20 7 0 13 5 13 10 0 6 7 10 15 10 8 0 15 5 15 11 0 5 4 8 9 4 6
-3 14 3 20 12 6 10 11 14 11 9 0 -15 45 37 46 54 1 17 -34 53 -57 59 -7 2 -24
3 -36 3 -13 0 -23 4 -23 9 0 5 -15 9 -32 9 -53 0 -68 3 -68 11 0 4 -8 8 -17 8
-58 3 -83 7 -83 15 0 4 -9 6 -20 3 -11 -3 -23 -1 -26 5 -3 5 -15 8 -25 5 -10
-3 -22 -1 -25 5 -3 5 -18 8 -32 7 -15 -1 -40 3 -55 10 -16 6 -41 11 -57 11
-16 0 -32 5 -36 11 -4 8 -9 7 -15 -2 -7 -11 -9 -11 -9 -1 0 7 -4 11 -9 7 -5
-3 -13 -1 -16 5 -5 8 -11 7 -21 -1 -11 -9 -14 -9 -14 0 0 7 -4 9 -10 6 -5 -3
-10 0 -10 7 0 9 -3 9 -10 -2 -6 -10 -10 -11 -10 -2 0 7 -15 12 -39 12 -22 0
-43 5 -46 10 -5 8 -11 8 -20 0 -9 -8 -14 -8 -17 1 -2 6 -16 12 -31 12 -15 0
-27 2 -27 6 0 3 -12 7 -27 7 -16 1 -41 5 -58 9 -16 4 -40 7 -52 8 -13 1 -23 4
-23 7 0 3 -10 6 -22 7 -13 0 -32 4 -42 8 -15 7 -17 5 -11 -6 8 -12 6 -12 -8 0
-9 7 -17 10 -17 6 0 -4 -7 -2 -15 5 -8 6 -19 9 -25 5 -5 -3 -10 -2 -10 2 0 5
-10 9 -22 10 -52 1 -59 3 -52 16 5 8 2 8 -9 -2 -12 -9 -21 -10 -29 -4 -7 6
-23 9 -35 8 -13 -1 -23 1 -23 5 0 4 -12 6 -27 5 -16 -1 -30 2 -33 6 -3 3 -23
9 -45 13 -22 3 -51 8 -65 12 -14 3 -32 6 -40 6 -8 1 -18 6 -22 12 -5 8 -8 7
-8 -2 0 -10 -5 -10 -22 -1 -12 7 -35 12 -50 11 -15 0 -28 2 -28 6 0 7 -10 8
-77 13 -16 0 -32 4 -38 7 -13 8 -33 12 -72 14 -18 1 -33 7 -33 12 0 5 -3 6 -6
3 -4 -3 -16 -2 -27 4 -15 8 -18 8 -12 -1 5 -9 3 -9 -11 -2 -11 5 -27 8 -36 7
-10 -2 -18 0 -18 4 0 5 -13 8 -30 9 -16 0 -35 4 -42 8 -7 5 -24 9 -38 10 -14
1 -25 2 -25 4 0 1 -11 3 -25 4 -14 0 -30 5 -37 9 -6 4 -14 1 -16 -5 -4 -10 -6
-10 -6 0 -1 6 -12 12 -26 12 -14 0 -25 5 -25 11 0 8 -4 8 -14 0 -10 -8 -16 -9
-21 -1 -3 6 -11 8 -16 5 -5 -4 -9 -2 -9 2 0 5 -16 8 -35 8 -20 -1 -38 2 -41 7
-8 13 -26 9 -18 -4 4 -7 -1 -6 -12 3 -10 9 -31 15 -46 14 -16 -1 -28 2 -28 8
0 5 -9 7 -20 4 -11 -3 -20 -2 -20 2 0 4 -13 6 -30 5 -16 -1 -30 2 -30 7 0 5
-10 9 -22 9 -49 0 -78 4 -78 11 0 4 -8 6 -17 4 -10 -1 -24 3 -32 9 -12 9 -13
8 -6 -4 7 -12 6 -13 -7 -3 -8 7 -18 10 -21 6 -4 -3 -7 -2 -7 4 0 5 -16 9 -36
8 -20 0 -42 5 -49 11 -9 10 -15 10 -24 1 -6 -6 -11 -7 -11 -1 0 5 -8 10 -17
11 -48 3 -73 8 -73 16 0 5 -6 4 -14 -2 -8 -7 -16 -8 -18 -2 -1 5 -19 11 -38
14 -19 3 -46 8 -60 11 -14 4 -40 7 -57 8 -18 1 -33 4 -33 7 0 6 -32 12 -77 14
-13 1 -23 4 -23 7 0 4 -17 8 -37 9 -21 1 -44 3 -50 3 -7 1 -13 5 -13 9 0 4
-14 6 -31 5 -17 -1 -38 4 -45 12 -8 7 -14 9 -14 3 0 -7 -8 -7 -26 -1 -14 6
-38 10 -53 10 -15 0 -31 3 -34 7 -7 6 -60 15 -104 17 -13 1 -23 5 -23 9 0 5
-5 5 -11 1 -6 -3 -15 0 -20 7 -7 12 -9 12 -9 0 0 -11 -3 -11 -17 0 -9 8 -18
13 -20 12 -1 -2 -4 -2 -5 -2 -5 2 -61 8 -95 9 -18 1 -33 6 -33 10 0 4 -10 8
-22 8 -13 0 -43 1 -68 1 -25 1 -64 0 -87 -3 -24 -3 -45 0 -49 5 -9 16 -55 33
-104 40 -14 2 -28 8 -31 12 -3 5 -9 2 -12 -7z"/>
<path d="M545 2130 c-3 -5 -1 -10 4 -10 6 0 11 5 11 10 0 6 -2 10 -4 10 -3 0
-8 -4 -11 -10z"/>
</g>
</svg>
